<svg width="106" height="99" viewBox="0 0 106 99" fill="none" xmlns="http://www.w3.org/2000/svg">
<circle cx="2.48744" cy="2.48744" r="2.48744" fill="#C4C4C4" fill-opacity="0.3"/>
<circle cx="2.48744" cy="15.9196" r="2.48744" fill="#C4C4C4" fill-opacity="0.3"/>
<circle cx="2.48744" cy="29.3518" r="2.48744" fill="#C4C4C4" fill-opacity="0.3"/>
<circle cx="2.48744" cy="42.7839" r="2.48744" fill="#C4C4C4" fill-opacity="0.3"/>
<circle cx="2.48744" cy="56.2161" r="2.48744" fill="#C4C4C4" fill-opacity="0.3"/>
<circle cx="2.48744" cy="69.6482" r="2.48744" fill="#C4C4C4" fill-opacity="0.3"/>
<circle cx="2.48744" cy="83.0804" r="2.48744" fill="#C4C4C4" fill-opacity="0.3"/>
<circle cx="2.48744" cy="96.5126" r="2.48744" fill="#C4C4C4" fill-opacity="0.3"/>
<circle cx="16.9146" cy="2.48744" r="2.48744" fill="#C4C4C4" fill-opacity="0.3"/>
<circle cx="16.9146" cy="15.9196" r="2.48744" fill="#C4C4C4" fill-opacity="0.3"/>
<circle cx="16.9146" cy="29.3518" r="2.48744" fill="#C4C4C4" fill-opacity="0.3"/>
<circle cx="16.9146" cy="42.7839" r="2.48744" fill="#C4C4C4" fill-opacity="0.3"/>
<circle cx="16.9146" cy="56.2161" r="2.48744" fill="#C4C4C4" fill-opacity="0.3"/>
<circle cx="16.9146" cy="69.6482" r="2.48744" fill="#C4C4C4" fill-opacity="0.3"/>
<circle cx="16.9146" cy="83.0804" r="2.48744" fill="#C4C4C4" fill-opacity="0.3"/>
<circle cx="16.9146" cy="96.5126" r="2.48744" fill="#C4C4C4" fill-opacity="0.3"/>
<circle cx="31.3417" cy="2.48744" r="2.48744" fill="#C4C4C4" fill-opacity="0.3"/>
<circle cx="31.3417" cy="15.9196" r="2.48744" fill="#C4C4C4" fill-opacity="0.3"/>
<circle cx="31.3417" cy="29.3518" r="2.48744" fill="#C4C4C4" fill-opacity="0.3"/>
<circle cx="31.3417" cy="42.7839" r="2.48744" fill="#C4C4C4" fill-opacity="0.3"/>
<circle cx="31.3417" cy="56.2161" r="2.48744" fill="#C4C4C4" fill-opacity="0.3"/>
<circle cx="31.3417" cy="69.6482" r="2.48744" fill="#C4C4C4" fill-opacity="0.3"/>
<circle cx="31.3417" cy="83.0804" r="2.48744" fill="#C4C4C4" fill-opacity="0.3"/>
<circle cx="31.3417" cy="96.5126" r="2.48744" fill="#C4C4C4" fill-opacity="0.3"/>
<circle cx="45.7689" cy="2.48744" r="2.48744" fill="#C4C4C4" fill-opacity="0.3"/>
<circle cx="45.7689" cy="15.9196" r="2.48744" fill="#C4C4C4" fill-opacity="0.3"/>
<circle cx="45.7689" cy="29.3518" r="2.48744" fill="#C4C4C4" fill-opacity="0.3"/>
<circle cx="45.7689" cy="42.7839" r="2.48744" fill="#C4C4C4" fill-opacity="0.3"/>
<circle cx="45.7689" cy="56.2161" r="2.48744" fill="#C4C4C4" fill-opacity="0.3"/>
<circle cx="45.7689" cy="69.6482" r="2.48744" fill="#C4C4C4" fill-opacity="0.3"/>
<circle cx="45.7689" cy="83.0804" r="2.48744" fill="#C4C4C4" fill-opacity="0.3"/>
<circle cx="45.7689" cy="96.5126" r="2.48744" fill="#C4C4C4" fill-opacity="0.3"/>
<circle cx="60.196" cy="2.48744" r="2.48744" fill="#C4C4C4" fill-opacity="0.3"/>
<circle cx="60.196" cy="15.9196" r="2.48744" fill="#C4C4C4" fill-opacity="0.3"/>
<circle cx="60.196" cy="29.3518" r="2.48744" fill="#C4C4C4" fill-opacity="0.3"/>
<circle cx="60.196" cy="42.7839" r="2.48744" fill="#C4C4C4" fill-opacity="0.3"/>
<circle cx="60.196" cy="56.2161" r="2.48744" fill="#C4C4C4" fill-opacity="0.3"/>
<circle cx="60.196" cy="69.6482" r="2.48744" fill="#C4C4C4" fill-opacity="0.3"/>
<circle cx="60.196" cy="83.0804" r="2.48744" fill="#C4C4C4" fill-opacity="0.3"/>
<circle cx="60.196" cy="96.5126" r="2.48744" fill="#C4C4C4" fill-opacity="0.3"/>
<circle cx="74.6231" cy="2.48744" r="2.48744" fill="#C4C4C4" fill-opacity="0.3"/>
<circle cx="74.6231" cy="15.9196" r="2.48744" fill="#C4C4C4" fill-opacity="0.3"/>
<circle cx="74.6231" cy="29.3518" r="2.48744" fill="#C4C4C4" fill-opacity="0.3"/>
<circle cx="74.6231" cy="42.7839" r="2.48744" fill="#C4C4C4" fill-opacity="0.3"/>
<circle cx="74.6231" cy="56.2161" r="2.48744" fill="#C4C4C4" fill-opacity="0.3"/>
<circle cx="74.6231" cy="69.6482" r="2.48744" fill="#C4C4C4" fill-opacity="0.3"/>
<circle cx="74.6231" cy="83.0804" r="2.48744" fill="#C4C4C4" fill-opacity="0.3"/>
<circle cx="74.6231" cy="96.5126" r="2.48744" fill="#C4C4C4" fill-opacity="0.3"/>
<circle cx="89.0502" cy="2.48744" r="2.48744" fill="#C4C4C4" fill-opacity="0.3"/>
<circle cx="89.0502" cy="15.9196" r="2.48744" fill="#C4C4C4" fill-opacity="0.3"/>
<circle cx="89.0502" cy="29.3518" r="2.48744" fill="#C4C4C4" fill-opacity="0.3"/>
<circle cx="89.0502" cy="42.7839" r="2.48744" fill="#C4C4C4" fill-opacity="0.3"/>
<circle cx="89.0502" cy="56.2161" r="2.48744" fill="#C4C4C4" fill-opacity="0.3"/>
<circle cx="89.0502" cy="69.6482" r="2.48744" fill="#C4C4C4" fill-opacity="0.3"/>
<circle cx="89.0502" cy="83.0804" r="2.48744" fill="#C4C4C4" fill-opacity="0.3"/>
<circle cx="89.0502" cy="96.5126" r="2.48744" fill="#C4C4C4" fill-opacity="0.3"/>
<circle cx="103.477" cy="2.48744" r="2.48744" fill="#C4C4C4" fill-opacity="0.3"/>
<circle cx="103.477" cy="15.9196" r="2.48744" fill="#C4C4C4" fill-opacity="0.3"/>
<circle cx="103.477" cy="29.3518" r="2.48744" fill="#C4C4C4" fill-opacity="0.3"/>
<circle cx="103.477" cy="42.7839" r="2.48744" fill="#C4C4C4" fill-opacity="0.3"/>
<circle cx="103.477" cy="56.2161" r="2.48744" fill="#C4C4C4" fill-opacity="0.3"/>
<circle cx="103.477" cy="69.6482" r="2.48744" fill="#C4C4C4" fill-opacity="0.3"/>
<circle cx="103.477" cy="83.0804" r="2.48744" fill="#C4C4C4" fill-opacity="0.3"/>
<circle cx="103.477" cy="96.5126" r="2.48744" fill="#C4C4C4" fill-opacity="0.3"/>
</svg>
