<svg width="80" height="23" viewBox="0 0 80 23" fill="none" xmlns="http://www.w3.org/2000/svg">
<path d="M10.7835 18.2278V22.6698H8.11825C6.21888 22.6698 4.7382 22.2103 3.67619 21.2913C2.61418 20.3518 2.08318 18.8302 2.08318 16.7266V9.9257H0V5.57555H2.08318V1.40919H7.32174V5.57555H10.7528V9.9257H7.32174V16.7879C7.32174 17.2985 7.44428 17.6661 7.68936 17.8908C7.93444 18.1154 8.3429 18.2278 8.91476 18.2278H10.7835Z" fill="white"/>
<path d="M21.475 22.9149C19.8003 22.9149 18.289 22.5575 16.941 21.8427C15.6135 21.1279 14.5617 20.1067 13.7857 18.7792C13.03 17.4517 12.6522 15.8995 12.6522 14.1227C12.6522 12.3663 13.0402 10.8243 13.8163 9.49683C14.5924 8.14889 15.6544 7.11751 17.0023 6.40269C18.3502 5.68788 19.8616 5.33047 21.5363 5.33047C23.211 5.33047 24.7223 5.68788 26.0702 6.40269C27.4182 7.11751 28.4802 8.14889 29.2563 9.49683C30.0324 10.8243 30.4204 12.3663 30.4204 14.1227C30.4204 15.8791 30.0221 17.4313 29.2256 18.7792C28.4496 20.1067 27.3773 21.1279 26.009 21.8427C24.661 22.5575 23.1497 22.9149 21.475 22.9149V22.9149ZM21.475 18.381C22.4757 18.381 23.3233 18.0133 24.0177 17.2781C24.7325 16.5429 25.0899 15.4911 25.0899 14.1227C25.0899 12.7543 24.7427 11.7025 24.0483 10.9673C23.3744 10.2321 22.537 9.86445 21.5363 9.86445C20.5151 9.86445 19.6676 10.2321 18.9936 10.9673C18.3196 11.6821 17.9826 12.7339 17.9826 14.1227C17.9826 15.4911 18.3094 16.5429 18.9629 17.2781C19.6369 18.0133 20.4743 18.381 21.475 18.381V18.381Z" fill="white"/>
<path d="M35.6589 22.9149C34.7399 22.9149 33.9842 22.6494 33.392 22.1184C32.8201 21.567 32.5342 20.893 32.5342 20.0965C32.5342 19.2796 32.8201 18.5954 33.392 18.0439C33.9842 17.4925 34.7399 17.2168 35.6589 17.2168C36.5576 17.2168 37.2928 17.4925 37.8647 18.0439C38.4569 18.5954 38.7531 19.2796 38.7531 20.0965C38.7531 20.893 38.4569 21.567 37.8647 22.1184C37.2928 22.6494 36.5576 22.9149 35.6589 22.9149Z" fill="#F0A202"/>
<path d="M40.8056 14.092C40.8056 12.3356 41.1324 10.7937 41.7859 9.46618C42.4599 8.13867 43.3687 7.1175 44.5124 6.40269C45.6561 5.68787 46.9326 5.33047 48.3418 5.33047C49.4651 5.33047 50.4862 5.56533 51.4053 6.03506C52.3447 6.5048 53.08 7.13793 53.611 7.93444V0H58.8496V22.6698H53.611V20.219C53.1208 21.036 52.4162 21.6895 51.4972 22.1797C50.5985 22.6698 49.5467 22.9149 48.3418 22.9149C46.9326 22.9149 45.6561 22.5575 44.5124 21.8427C43.3687 21.1074 42.4599 20.0761 41.7859 18.7486C41.1324 17.4006 40.8056 15.8484 40.8056 14.092V14.092ZM53.611 14.1227C53.611 12.8156 53.2434 11.7842 52.5081 11.0285C51.7933 10.2729 50.9151 9.89503 49.8735 9.89503C48.8319 9.89503 47.9435 10.2729 47.2083 11.0285C46.4935 11.7638 46.1361 12.7849 46.1361 14.092C46.1361 15.3991 46.4935 16.4407 47.2083 17.2168C47.9435 17.9724 48.8319 18.3503 49.8735 18.3503C50.9151 18.3503 51.7933 17.9724 52.5081 17.2168C53.2434 16.4611 53.611 15.4297 53.611 14.1227Z" fill="white"/>
<path d="M70.4295 22.9149C68.7548 22.9149 67.2435 22.5575 65.8955 21.8427C64.568 21.1279 63.5162 20.1067 62.7401 18.7792C61.9845 17.4517 61.6067 15.8995 61.6067 14.1227C61.6067 12.3663 61.9947 10.8243 62.7708 9.49683C63.5469 8.14889 64.6089 7.11751 65.9568 6.40269C67.3047 5.68788 68.8161 5.33047 70.4908 5.33047C72.1655 5.33047 73.6768 5.68788 75.0247 6.40269C76.3727 7.11751 77.4347 8.14889 78.2108 9.49683C78.9869 10.8243 79.3749 12.3663 79.3749 14.1227C79.3749 15.8791 78.9766 17.4313 78.1801 18.7792C77.4041 20.1067 76.3318 21.1279 74.9635 21.8427C73.6155 22.5575 72.1042 22.9149 70.4295 22.9149V22.9149ZM70.4295 18.381C71.4302 18.381 72.2778 18.0133 72.9722 17.2781C73.687 16.5429 74.0444 15.4911 74.0444 14.1227C74.0444 12.7543 73.6972 11.7025 73.0028 10.9673C72.3289 10.2321 71.4915 9.86445 70.4908 9.86445C69.4696 9.86445 68.622 10.2321 67.9481 10.9673C67.2741 11.6821 66.9371 12.7339 66.9371 14.1227C66.9371 15.4911 67.2639 16.5429 67.9174 17.2781C68.5914 18.0133 69.4288 18.381 70.4295 18.381V18.381Z" fill="white"/>
</svg>
